<?xml version="1.0" standalone="no"?>
<!DOCTYPE svg PUBLIC "-//W3C//DTD SVG 1.1//EN" "http://www.w3.org/Graphics/SVG/1.1/DTD/svg11.dtd" >
<svg xmlns="http://www.w3.org/2000/svg" xmlns:xlink="http://www.w3.org/1999/xlink" version="1.1">
<metadata></metadata>
<defs>
<font id="whitney-semiboldregular" horiz-adv-x="929" >
<font-face units-per-em="2048" ascent="1638" descent="-410" />
<missing-glyph horiz-adv-x="438" />
<glyph horiz-adv-x="0" />
<glyph unicode="&#xd;" horiz-adv-x="438" />
<glyph unicode=" "  horiz-adv-x="438" />
<glyph unicode="&#x09;" horiz-adv-x="438" />
<glyph unicode="&#xa0;" horiz-adv-x="438" />
<glyph unicode="!" horiz-adv-x="581" d="M139 1413l76 -960l154 34l73 926h-303zM156 0h268v299h-268v-299z" />
<glyph unicode="&#x22;" horiz-adv-x="952" d="M113 1384l65 -485l154 -35l69 520h-288zM549 1384l67 -485l152 -35l72 520h-291z" />
<glyph unicode="#" horiz-adv-x="1366" d="M80 322h219l-49 -302l164 -36l53 338h313l-51 -326h170l51 326h299l-32 206h-234l51 328h250v207h-217l47 301l-164 37l-51 -338h-313l51 326h-170l-53 -326h-297l35 -207h229l-51 -328h-250v-206zM498 524l53 336h315l-51 -336h-317z" />
<glyph unicode="$" horiz-adv-x="1101" d="M72 98q63 -33 140 -57.5t163 -36.5l-5 -35t-11.5 -77t-11.5 -76l-5 -35l141 -31l37 242h10q223 0 354.5 103.5t131.5 301.5q0 84 -22.5 146.5t-69.5 112t-118 86t-167 69.5l57 373q66 -14 123.5 -38t108.5 -54l35 211q-101 50 -228 75l21 135l-144 33l-24 -153h-21 q-213 0 -337 -97.5t-124 -283.5q0 -82 24 -141.5t70 -104.5t116.5 -80t162.5 -65l-63 -424q-82 12 -158 40.5t-154 71.5zM328 1038q0 76 52 119t161 43h26l-53 -348q-53 18 -89 37.5t-57.5 41t-30.5 48.5t-9 59zM543 186l59 394q115 -41 153 -89.5t38 -115.5 q0 -92 -61.5 -140.5t-184.5 -48.5h-4z" />
<glyph unicode="%" horiz-adv-x="1837" d="M84 993q0 -96 26.5 -172t71.5 -128t106.5 -79.5t133.5 -27.5q70 0 132 27.5t107.5 79.5t72 128t26.5 172q0 98 -25.5 174t-72 128.5t-107.5 79t-133 26.5t-133.5 -26.5t-106.5 -79t-71.5 -128t-26.5 -174.5zM270 993q0 115 37 186.5t115 71.5t114.5 -71.5t36.5 -186.5 q0 -113 -35.5 -184.5t-115.5 -71.5q-76 0 -114 73t-38 183zM395 25l162 -39l885 1374l-164 39zM1075 391q0 -96 26.5 -172t72 -128t106.5 -79.5t133 -27.5q70 0 132.5 27.5t107.5 79.5t71.5 128t26.5 172q0 98 -26.5 174t-71.5 128t-107.5 79t-132.5 27q-72 0 -133 -27 t-106.5 -79t-72 -128t-26.5 -174zM1262 391q0 115 36.5 185.5t114.5 70.5t115 -71.5t37 -184.5q0 -115 -37 -186.5t-115 -71.5t-114.5 73t-36.5 185z" />
<glyph unicode="&#x26;" horiz-adv-x="1376" d="M63 358q0 -184 125 -283.5t342 -99.5q127 0 231.5 47.5t188.5 135.5l166 -170l273 45l-293 315q100 180 141 438l-215 48q-25 -184 -78 -318l-340 361q-59 61 -85.5 107t-26.5 99q0 59 39.5 99.5t117.5 40.5q74 0 152 -29t160 -78l38 236q-72 39 -163 63.5t-201 24.5 q-94 0 -169 -27t-126 -73t-77.5 -109.5t-26.5 -138.5q0 -96 31.5 -166t97.5 -142q-135 -72 -218.5 -173t-83.5 -253zM319 389q0 74 46.5 137.5t132.5 112.5l319 -334q-111 -125 -260 -125q-109 0 -173.5 58.5t-64.5 150.5z" />
<glyph unicode="'" horiz-adv-x="518" d="M113 1384l65 -485l158 -35l70 520h-293z" />
<glyph unicode="(" horiz-adv-x="833" d="M113 637q0 -135 30.5 -249t88 -214t141.5 -189t190 -178l207 48q-104 100 -178 193t-121 186.5t-68.5 192.5t-21.5 210q0 217 80 373.5t244 285.5l-29 191q-274 -147 -418.5 -355t-144.5 -495z" />
<glyph unicode=")" horiz-adv-x="833" d="M63 1432q104 -100 178 -193.5t121.5 -188t69 -192.5t21.5 -211q0 -109 -20.5 -201t-61.5 -171.5t-101.5 -150.5t-142.5 -136l31 -191q274 147 417.5 355t143.5 495q0 135 -31 249t-88 214t-140 190.5t-190 178.5z" />
<glyph unicode="*" horiz-adv-x="858" d="M74 1141l219 -123l-107 -232l58 -38l184 172l184 -172l60 38l-109 232l221 123l-22 65l-252 -26l-45 243h-74l-45 -243l-252 26z" />
<glyph unicode="+" horiz-adv-x="1171" d="M111 594h372v-385h205v385h373v197h-373v385h-205v-385h-372v-197z" />
<glyph unicode="," horiz-adv-x="497" d="M51 -254l142 -35l233 588h-281z" />
<glyph unicode="-" horiz-adv-x="724" d="M96 471h533v236h-533v-236z" />
<glyph unicode="." horiz-adv-x="497" d="M115 0h268v299h-268v-299z" />
<glyph unicode="/" horiz-adv-x="1091" d="M-76 -215l211 -45l924 1646l-211 46z" />
<glyph unicode="0" horiz-adv-x="1284" d="M90 692q0 -172 40 -306t112.5 -226t174 -139.5t226.5 -47.5q123 0 225.5 47.5t174 139.5t111.5 226t40 306t-40 306.5t-111.5 226.5t-174 139t-225.5 47q-125 0 -226.5 -47t-174 -139t-112.5 -226.5t-40 -306.5zM352 692q0 248 75 378t216 130t214 -130t73 -378t-73 -378 t-214 -130t-216 130t-75 378z" />
<glyph unicode="1" horiz-adv-x="782" d="M41 1229l29 -207l282 108v-1130h262v1386h-231z" />
<glyph unicode="2" horiz-adv-x="1112" d="M86 0h940l-33 217h-581l336 334q63 63 111 118.5t80 110t47 111.5t15 125q0 182 -117.5 287.5t-328.5 105.5q-137 0 -244.5 -42t-189.5 -105l33 -234q86 68 178 111t194 43q104 0 159.5 -48.5t55.5 -144.5q0 -76 -39.5 -140.5t-119.5 -150.5l-496 -505v-193z" />
<glyph unicode="3" horiz-adv-x="1083" d="M66 82q84 -49 193.5 -79t232.5 -30q113 0 206 28t160.5 81t104 129t36.5 172q0 141 -72.5 223t-201.5 121q111 39 180.5 113.5t69.5 208.5q0 76 -28.5 141t-87 114.5t-144.5 78t-203 28.5q-135 0 -239.5 -35t-184.5 -92l33 -217q78 57 168 90t194 33q117 0 173.5 -46 t56.5 -124q0 -92 -73 -144.5t-232 -52.5h-117l33 -205h73q182 0 261 -57t79 -168q0 -98 -68.5 -148t-187.5 -50q-106 0 -199.5 29.5t-179.5 82.5z" />
<glyph unicode="4" horiz-adv-x="1226" d="M61 295h668v-295h246v295h207v190h-207v901h-299l-615 -917v-174zM303 485l426 635v-635h-426z" />
<glyph unicode="5" horiz-adv-x="1107" d="M78 74q84 -45 184 -73t223 -28q117 0 216.5 31t172 90.5t113.5 148.5t41 206q0 98 -32.5 175.5t-92 132t-143.5 83t-187 28.5q-70 0 -120 -9t-88 -19l24 323h600l-35 221h-772l-49 -729l176 -39q43 18 94.5 29.5t120.5 11.5q123 0 188.5 -58t65.5 -163q0 -61 -22.5 -107 t-61.5 -76t-92 -44t-115 -14q-104 0 -198 30.5t-172 77.5z" />
<glyph unicode="6" horiz-adv-x="1167" d="M88 559q0 -143 38 -252.5t106.5 -183.5t162.5 -112t207 -38q106 0 197.5 34t157 96.5t103.5 148.5t38 190q0 100 -31 179t-85 133.5t-129 82t-165 27.5q-102 0 -185 -28.5t-159 -77.5q25 92 75 163.5t122.5 124t162 88t191.5 60.5l-33 219q-168 -37 -310 -106.5 t-244.5 -175t-161 -248t-58.5 -324.5zM330 561q66 47 133 74t143 27q125 0 183.5 -60.5t58.5 -173.5q0 -117 -66.5 -183.5t-175.5 -66.5q-123 0 -198.5 98.5t-77.5 284.5z" />
<glyph unicode="7" horiz-adv-x="1095" d="M66 1384l32 -225h635l-508 -1124l252 -49l535 1196v202h-946z" />
<glyph unicode="8" horiz-adv-x="1183" d="M82 358q0 -78 32.5 -148.5t97 -122.5t160 -83t220.5 -31q119 0 213 30t159.5 82t101.5 124t36 156q0 70 -17.5 123t-52.5 96t-85 78.5t-116 66.5q100 59 163 141t63 191q0 76 -32 139.5t-91.5 110.5t-143 73.5t-190.5 26.5q-104 0 -190 -26.5t-147.5 -73.5t-96.5 -116 t-35 -151q0 -117 59.5 -191.5t159.5 -127.5q-123 -66 -195.5 -158t-72.5 -209zM332 377q0 84 54 150.5t146 115.5q88 -37 149.5 -66.5t98.5 -60.5t53.5 -66.5t16.5 -82.5q0 -92 -71.5 -145.5t-182.5 -53.5q-115 0 -189.5 55.5t-74.5 153.5zM375 1049q0 74 55 124t162 50 q104 0 162.5 -47.5t58.5 -126.5q0 -72 -44 -131.5t-122 -106.5q-74 31 -126 56.5t-85 53t-47 58.5t-14 70z" />
<glyph unicode="9" horiz-adv-x="1167" d="M70 934q0 -211 113.5 -320.5t301.5 -109.5q94 0 176 27.5t156 74.5q-27 -90 -79 -157.5t-124.5 -118.5t-164 -85t-195.5 -55l33 -219q174 35 319.5 103.5t251 175t163.5 250t58 325.5q0 143 -37.5 253t-106.5 183.5t-164 111.5t-208 38q-106 0 -196.5 -34t-157 -97 t-103 -151.5t-36.5 -194.5zM319 948q0 123 67 190.5t175 67.5q123 0 200 -101t77 -294v-8q-66 -47 -133.5 -72.5t-143.5 -25.5q-123 0 -182.5 62t-59.5 181z" />
<glyph unicode=":" horiz-adv-x="516" d="M123 0h268v297h-268v-297zM123 694h268v295h-268v-295z" />
<glyph unicode=";" horiz-adv-x="516" d="M43 -254l143 -35l234 586h-281zM137 694h269v295h-269v-295z" />
<glyph unicode="&#x3c;" horiz-adv-x="1171" d="M117 604l915 -454v223l-667 321l667 320v221l-915 -455v-176z" />
<glyph unicode="=" horiz-adv-x="1208" d="M150 352h911v205h-911v-205zM150 827h911v205h-911v-205z" />
<glyph unicode="&#x3e;" horiz-adv-x="1171" d="M139 150l916 454v176l-916 455v-223l668 -322l-668 -319v-221z" />
<glyph unicode="?" horiz-adv-x="1048" d="M72 1292l34 -237q88 68 186.5 111.5t209.5 43.5q92 0 148.5 -44t56.5 -122q0 -86 -63.5 -140t-211.5 -107l-63 -25l24 -326l150 33l12 142q98 37 175 77.5t129 93t80 119t28 152.5q0 178 -118 277.5t-321 99.5q-141 0 -252.5 -41t-203.5 -107zM322 0h270v299h-270v-299z " />
<glyph unicode="@" horiz-adv-x="1710" d="M92 383q0 -164 47 -289t136.5 -210t214 -128t282.5 -43q141 0 258 28t203 71l-12 73q-92 -47 -202 -73.5t-239 -26.5t-238.5 35t-189.5 107.5t-125 186t-45 271.5q0 180 60.5 333.5t164 266.5t240.5 176.5t289 63.5q127 0 235.5 -37t187.5 -110.5t124 -186.5t45 -262 q0 -205 -72 -312.5t-176 -107.5q-66 0 -97.5 33.5t-31.5 87.5q0 27 2 56.5t6 49.5l66 428q-70 27 -147 42.5t-156 15.5q-90 0 -173 -40t-146.5 -114t-100.5 -176.5t-37 -226.5q0 -68 18.5 -118t49 -83t70.5 -49.5t83 -16.5q76 0 140.5 41t140.5 127q25 -80 96.5 -124 t167.5 -44q90 0 161.5 38t121 107.5t76 168t26.5 219.5q0 156 -48 279.5t-136.5 209.5t-212 132t-275.5 46q-178 0 -333.5 -73.5t-270.5 -198.5t-181.5 -292t-66.5 -351zM668 395q0 82 20.5 149.5t54 117t76.5 76t90 26.5q31 0 53.5 -4t47.5 -12l-54 -332 q-66 -80 -110.5 -114t-89.5 -34q-41 0 -64.5 30t-23.5 97z" />
<glyph unicode="A" horiz-adv-x="1423" d="M43 0h268l129 358h535l135 -372l270 49l-518 1384h-289zM514 580l193 544l192 -544h-385z" />
<glyph unicode="B" horiz-adv-x="1159" d="M150 0h405q125 0 223.5 25.5t167 76t105 128.5t36.5 182q0 141 -71.5 222t-190.5 118q92 39 148.5 111.5t56.5 183.5q0 168 -114.5 267t-354.5 99h-411v-1413zM410 207v432h141q135 0 205.5 -55t70.5 -164q0 -106 -71.5 -159.5t-200.5 -53.5h-145zM410 831v375h137 q123 0 177 -48t54 -134q0 -92 -61.5 -142.5t-181.5 -50.5h-125z" />
<glyph unicode="C" horiz-adv-x="1280" d="M94 705q0 -164 47 -299.5t134 -230.5t211 -147.5t278 -52.5q121 0 225.5 34t190.5 87l-37 234q-82 -53 -171 -86t-188 -33q-188 0 -300.5 130t-112.5 366q0 231 107.5 364t295.5 133q104 0 189.5 -35.5t154.5 -89.5l39 256q-78 47 -175 75t-220 28q-150 0 -272.5 -53.5 t-211 -149.5t-136.5 -231.5t-48 -298.5z" />
<glyph unicode="D" horiz-adv-x="1441" d="M150 0h448q180 0 319.5 51t233.5 145.5t143 224.5t49 288q0 156 -47 285.5t-141 223t-233.5 144.5t-323.5 51h-448v-1413zM420 223v967h176q106 0 193.5 -30t148.5 -90t95 -150t34 -213q0 -250 -126 -367t-349 -117h-172z" />
<glyph unicode="E" horiz-adv-x="1060" d="M150 0h841v229h-573v389h463l-37 234h-426v332h553v229h-821v-1413z" />
<glyph unicode="F" horiz-adv-x="1005" d="M150 0h270v582h436l-39 237h-397v359h520v235h-790v-1413z" />
<glyph unicode="G" horiz-adv-x="1411" d="M94 705q0 -164 45 -298.5t133 -230.5t218.5 -149.5t297.5 -53.5q141 0 268.5 39t227.5 105v674h-567l33 -218h286v-313q-53 -29 -108.5 -43t-128.5 -14q-106 0 -186.5 35.5t-134.5 102.5t-80.5 159t-26.5 207q0 113 25.5 205t77.5 158.5t130 102t182 35.5 q117 0 213.5 -37.5t176.5 -95.5l38 252q-86 51 -190 82t-240 31q-162 0 -289.5 -53.5t-217 -150.5t-136.5 -232.5t-47 -298.5z" />
<glyph unicode="H" horiz-adv-x="1443" d="M150 0h272v614h600v-614h272v1413h-272v-557h-600v557h-272v-1413z" />
<glyph unicode="I" horiz-adv-x="589" d="M160 0h272v1413h-272v-1413z" />
<glyph unicode="J" horiz-adv-x="813" d="M43 236l37 -236q27 -4 71 -9t91 -5q94 0 174 22.5t138 71.5t90 124.5t32 184.5v1024h-270v-989q0 -115 -53.5 -162t-147.5 -47q-55 0 -91 5t-71 16z" />
<glyph unicode="K" horiz-adv-x="1288" d="M150 0h272v688l569 -702l289 51l-588 723l561 653h-311l-520 -620v620h-272v-1413z" />
<glyph unicode="L" horiz-adv-x="976" d="M150 0h780l-37 240h-471v1173h-272v-1413z" />
<glyph unicode="M" horiz-adv-x="1832" d="M111 0h243l72 1032l358 -1036h238l356 1036l76 -1032h270l-108 1413h-338l-356 -1067l-359 1067h-344z" />
<glyph unicode="N" horiz-adv-x="1441" d="M150 0h251v973l666 -973h225v1413h-252v-926l-634 926h-256v-1413z" />
<glyph unicode="O" horiz-adv-x="1515" d="M94 705q0 -164 47 -298.5t133 -230.5t208 -149.5t274 -53.5t274.5 53.5t209.5 150.5t134 232.5t47 299.5t-46 298t-132 230t-209 149.5t-274 53.5q-152 0 -275 -53.5t-210 -150.5t-134 -232.5t-47 -298.5zM371 707q0 117 26.5 210t76.5 159.5t122 102t162 35.5 t162.5 -35.5t123 -102t77 -159.5t26.5 -210t-26.5 -210.5t-77 -160t-122 -102t-163.5 -35.5q-90 0 -162 35.5t-122 102t-76.5 160t-26.5 210.5z" />
<glyph unicode="P" horiz-adv-x="1136" d="M150 0h270v520h121q121 0 221 29t171 86t109.5 143t38.5 201q0 215 -137 324.5t-381 109.5h-413v-1413zM420 739v457h129q266 0 266 -223q0 -123 -72.5 -178.5t-203.5 -55.5h-119z" />
<glyph unicode="Q" horiz-adv-x="1515" d="M94 705q0 -276 121 -451.5t360 -261.5l779 -285l51 234l-367 125q174 74 278.5 239.5t104.5 413.5q0 162 -47 295t-133 228t-209 146.5t-272 51.5q-152 0 -275 -53.5t-210 -150.5t-134 -232.5t-47 -298.5zM371 705q0 115 26.5 209t75.5 160.5t121 103t164 36.5 q90 0 162.5 -36.5t123 -103t77 -160.5t26.5 -209t-26.5 -210.5t-77 -163t-122 -105.5t-163.5 -38q-90 0 -162 38t-122 105.5t-76.5 163t-26.5 210.5z" />
<glyph unicode="R" horiz-adv-x="1214" d="M150 0h270v541h123l368 -555l277 51l-377 555q131 47 207 145.5t76 251.5q0 207 -134.5 315.5t-371.5 108.5h-438v-1413zM418 748v448h149q129 0 194.5 -57.5t65.5 -163.5q0 -111 -72.5 -169t-199.5 -58h-137z" />
<glyph unicode="S" horiz-adv-x="1091" d="M90 82q94 -45 205 -71.5t240 -26.5q102 0 189 26.5t150.5 79.5t99.5 131t36 182q0 82 -21.5 144.5t-69 113t-123 93.5t-184.5 88q-74 31 -121 55.5t-73.5 49t-36.5 50t-10 60.5q0 66 46 108.5t148 42.5q84 0 170 -29.5t164 -80.5l41 245q-78 41 -165 64t-208 23 q-98 0 -182 -27t-145.5 -78t-95 -124t-33.5 -167q0 -82 21.5 -142.5t67.5 -108.5t119.5 -88t176.5 -83q76 -33 126 -59.5t77.5 -52t39 -55t11.5 -68.5q0 -86 -58.5 -129t-152.5 -43q-106 0 -212 35.5t-196 89.5z" />
<glyph unicode="T" horiz-adv-x="1239" d="M59 1178h420v-1178h273v1178h444l-39 235h-1098v-235z" />
<glyph unicode="U" horiz-adv-x="1409" d="M135 547q0 -139 40 -245.5t113.5 -178.5t178 -110t233.5 -38t234.5 38t181.5 111t118 180.5t42 248.5v860h-272v-858q0 -164 -75 -254t-227 -90q-150 0 -223 94t-73 256v852h-271v-866z" />
<glyph unicode="V" horiz-adv-x="1402" d="M43 1378l520 -1384h266l531 1419h-283l-370 -1069l-377 1083z" />
<glyph unicode="W" horiz-adv-x="2054" d="M59 1376l396 -1376h256l313 1028l313 -1028h258l406 1413h-272l-259 -997l-294 997h-273l-295 -997l-266 1011z" />
<glyph unicode="X" horiz-adv-x="1329" d="M39 0h285q2 4 33.5 56.5t83 133t98.5 158.5t81 134l35 55l344 -551l285 51l-465 711l428 665h-286l-289 -477l-303 491l-285 -51l422 -649z" />
<glyph unicode="Y" horiz-adv-x="1339" d="M33 1382l493 -843v-539h273v541l512 872h-291l-346 -625l-359 639z" />
<glyph unicode="Z" horiz-adv-x="1247" d="M90 0h1079l-34 223h-715l731 991v199h-1030l35 -223h665l-731 -991v-199z" />
<glyph unicode="[" horiz-adv-x="847" d="M162 -213h602l-27 166h-338v1296h355v164h-592v-1626z" />
<glyph unicode="\" horiz-adv-x="1091" d="M33 1384l923 -1646l211 45l-925 1647z" />
<glyph unicode="]" horiz-adv-x="847" d="M82 1413l27 -164h340v-1296h-357v-166h592v1626h-602z" />
<glyph unicode="^" d="M147 1120h156l162 133l168 -141l141 29l-192 274h-230z" />
<glyph unicode="_" d="M-4 -70v-143h938v143h-938z" />
<glyph unicode="`" d="M223 1374l289 -254h162l-150 310z" />
<glyph unicode="a" horiz-adv-x="1030" d="M70 254q0 -129 76.5 -201.5t203.5 -72.5q111 0 191 43t139 106l20 -129h211v678q0 178 -95 255t-288 77q-119 0 -213 -22.5t-180 -57.5l31 -197q80 35 162 57.5t168 22.5q82 0 126 -34t44 -113v-29q-301 -29 -448.5 -116t-147.5 -267zM313 281q0 35 15.5 67.5t54.5 60 t107.5 50t175.5 35.5v-222q-51 -51 -109.5 -78.5t-122.5 -27.5q-57 0 -89 30.5t-32 84.5z" />
<glyph unicode="b" horiz-adv-x="1099" d="M125 53q92 -31 190.5 -48t214.5 -17q111 0 202 31.5t155.5 98t100.5 167t36 237.5q0 125 -28.5 216t-79 151.5t-119 90.5t-146.5 30q-94 0 -163.5 -41t-116.5 -90v600l-246 -39v-1387zM371 215v449q47 55 101 92t116 37q84 0 136 -71t52 -214q0 -170 -66.5 -245 t-183.5 -75q-53 0 -84.5 6.5t-70.5 20.5z" />
<glyph unicode="c" horiz-adv-x="942" d="M74 489q0 -121 34.5 -216t97 -159.5t148.5 -98t189 -33.5q94 0 172.5 21.5t154.5 74.5l-32 209q-70 -53 -130.5 -73.5t-125.5 -20.5q-113 0 -186.5 74.5t-73.5 228.5q0 147 68.5 224t174.5 77q72 0 134.5 -22.5t125.5 -69.5l35 221q-59 37 -134 60.5t-175 23.5 q-98 0 -185 -33t-151.5 -98.5t-102.5 -163t-38 -226.5z" />
<glyph unicode="d" horiz-adv-x="1107" d="M76 467q0 -125 28.5 -217t80 -151.5t119 -89t145.5 -29.5q104 0 176.5 47t126.5 110l20 -137h211v1479l-246 -39v-477q-45 16 -101 26t-128 10q-86 0 -164 -31.5t-138.5 -96t-95 -166t-34.5 -238.5zM322 481q0 164 62 243t161 79q63 0 104 -10.5t88 -32.5v-426 q-49 -61 -103 -98t-122 -37q-82 0 -136 68.5t-54 213.5z" />
<glyph unicode="e" horiz-adv-x="1028" d="M74 494q0 -133 36.5 -230.5t101 -161t153 -93t192.5 -29.5q121 0 218 32.5t177 87.5l-28 193q-82 -57 -163 -90t-177 -33q-115 0 -185.5 65.5t-81.5 210.5h635q0 10 1 27t1 33q0 104 -25.5 196.5t-77.5 161t-134 107.5t-193 39q-96 0 -179 -36t-143.5 -102.5t-94 -162 t-33.5 -215.5zM322 600q14 123 68 181.5t128 58.5q90 0 137.5 -61.5t59.5 -178.5h-393z" />
<glyph unicode="f" horiz-adv-x="667" d="M39 788h143v-788h244v788h219l-31 201h-188v146q0 66 33 95.5t96 29.5q31 0 57.5 -2.5t44.5 -6.5l-32 201q-18 4 -43 6t-58 2q-76 0 -139 -16.5t-108.5 -52t-70 -93t-24.5 -139.5v-170h-143v-201z" />
<glyph unicode="g" horiz-adv-x="1062" d="M20 -127q0 -61 36 -107.5t99.5 -77t149.5 -46t187 -15.5q106 0 201 21.5t166 64.5t112 104.5t41 141.5q0 57 -22.5 98t-65.5 70t-104.5 47.5t-137.5 28.5l-127 12q-57 8 -93 14.5t-56.5 13.5t-27.5 15t-7 21q0 23 41 53q37 -6 80 -6q80 0 151.5 23.5t125.5 66.5t86 106.5 t32 143.5q0 35 -6.5 67.5t-20.5 61.5l180 12l-32 197l-242 -86q-111 92 -281 92q-84 0 -155.5 -24.5t-125.5 -70t-85 -111t-31 -145.5q0 -98 49 -172.5t137 -115.5q-124 -75 -124 -157q0 -62 57 -108q-92 -53 -139.5 -108t-47.5 -125zM233 -100q1 75 105 149q37 -8 66.5 -13 t80.5 -11l133 -17q92 -14 129 -37.5t37 -64.5q0 -55 -71.5 -94t-204.5 -39q-141 0 -208 35.5t-67 91.5zM315 659q0 82 45.5 137.5t126.5 55.5q78 0 126.5 -53t48.5 -133t-46.5 -133.5t-128.5 -53.5q-80 0 -126 51.5t-46 128.5z" />
<glyph unicode="h" horiz-adv-x="1089" d="M125 0h246v668q53 57 109.5 91t115.5 34q68 0 97.5 -40t29.5 -106v-647h246v713q0 139 -72 218t-211 79q-98 0 -176 -44t-139 -102v615l-246 -39v-1440z" />
<glyph unicode="i" horiz-adv-x="516" d="M113 1294q0 -61 43 -100t104 -39q59 0 102.5 39t43.5 100q0 63 -43.5 103.5t-102.5 40.5q-61 0 -104 -40t-43 -104zM135 0h246v989h-246v-989z" />
<glyph unicode="j" horiz-adv-x="518" d="M-51 -164l31 -201q12 -4 39.5 -6t56.5 -2q137 0 221 68.5t84 228.5v1065h-246v-1044q0 -66 -28.5 -91.5t-79.5 -25.5q-47 0 -78 8zM113 1294q0 -61 43 -100t104 -39q59 0 102.5 39t43.5 100q0 63 -43.5 103.5t-102.5 40.5q-61 0 -104 -40t-43 -104z" />
<glyph unicode="k" horiz-adv-x="1009" d="M125 0h246v489l362 -503l260 37l-387 524l365 442h-277l-323 -409v899l-246 -39v-1440z" />
<glyph unicode="l" horiz-adv-x="516" d="M135 0h246v1479l-246 -39v-1440z" />
<glyph unicode="m" horiz-adv-x="1665" d="M125 0h246v670q53 55 107 89t112 34q68 0 95.5 -40t27.5 -106v-647h245v670q53 55 107.5 89t112.5 34q68 0 94 -40t26 -106v-647h246v713q0 139 -68.5 218t-209.5 79q-100 0 -182.5 -47.5t-147.5 -112.5q-29 72 -88.5 116t-165.5 44q-100 0 -178 -47.5t-148 -112.5 l-22 139h-209v-989z" />
<glyph unicode="n" horiz-adv-x="1089" d="M125 0h246v668q53 57 109.5 91t115.5 34q68 0 97.5 -40t29.5 -106v-647h246v713q0 139 -72 218t-211 79q-100 0 -180 -47.5t-150 -112.5l-22 139h-209v-989z" />
<glyph unicode="o" horiz-adv-x="1079" d="M74 494q0 -121 34.5 -216.5t96 -162t146.5 -101t186 -34.5q100 0 186 34.5t149.5 101t98.5 162t35 216.5t-35 216t-97.5 161.5t-148.5 102.5t-186 36t-185.5 -36t-148 -102.5t-97 -162t-34.5 -215.5zM313 494q0 139 56.5 226t167.5 87t170 -88t59 -225 q0 -139 -57.5 -226.5t-171.5 -87.5q-109 0 -166.5 89t-57.5 225z" />
<glyph unicode="p" horiz-adv-x="1107" d="M125 -381l246 37v373q45 -16 101 -27.5t128 -11.5q86 0 164 31.5t137.5 96t95 165t35.5 239.5q0 125 -28.5 216t-80 151.5t-119 90.5t-145.5 30q-104 0 -176.5 -48.5t-126.5 -107.5l-22 135h-209v-1370zM371 229v424q49 63 103 101.5t120 38.5q84 0 137 -71t53 -214 q0 -164 -63.5 -243t-159.5 -79q-63 0 -104 10.5t-86 32.5z" />
<glyph unicode="q" horiz-adv-x="1099" d="M76 467q0 -125 28.5 -217t78.5 -151.5t119 -89t147 -29.5q94 0 162.5 40.5t117.5 90.5v-492l246 37v1280q-92 31 -190.5 48t-215.5 17q-111 0 -202 -32.5t-155.5 -98t-100 -166t-35.5 -237.5zM322 481q0 170 67.5 245t183.5 75q53 0 85 -7.5t71 -21.5v-446 q-47 -55 -101.5 -91t-115.5 -36q-84 0 -137 68.5t-53 213.5z" />
<glyph unicode="r" horiz-adv-x="751" d="M125 0h246v567q53 80 143 135.5t207 63.5l-39 244q-117 -6 -192.5 -69.5t-124.5 -149.5l-31 198h-209v-989z" />
<glyph unicode="s" horiz-adv-x="927" d="M74 78q72 -39 174 -67.5t211 -28.5q197 0 298 81t101 228q0 70 -19.5 120t-62.5 87t-110.5 63.5t-163.5 50.5q-55 14 -91 27.5t-56.5 28t-29 30t-8.5 35.5q0 41 34 65.5t104 24.5q74 0 156.5 -24.5t156.5 -65.5l33 205q-152 70 -346 70q-174 0 -269.5 -81t-95.5 -210 q0 -68 19.5 -116t60.5 -84t105.5 -62.5t154.5 -48.5q59 -14 98 -27.5t61.5 -29t32 -35t9.5 -46.5q0 -47 -42 -74.5t-122 -27.5q-92 0 -186.5 31.5t-174.5 85.5z" />
<glyph unicode="t" horiz-adv-x="716" d="M37 788h139v-507q0 -84 23.5 -141.5t66.5 -92.5t102.5 -49t133.5 -14q53 0 89.5 5t65.5 11l-30 207q-31 -8 -78 -8q-72 0 -101.5 31.5t-29.5 91.5v466h233l-30 201h-203v350l-242 -36v-314h-139v-201z" />
<glyph unicode="u" horiz-adv-x="1089" d="M121 279q0 -141 70.5 -220t211.5 -79q98 0 179.5 47t150.5 112l23 -139h209v989h-246v-667q-53 -55 -110.5 -89t-116.5 -34q-66 0 -95.5 38.5t-29.5 104.5v647h-246v-710z" />
<glyph unicode="v" horiz-adv-x="1003" d="M35 971l346 -975h240l350 993h-244l-213 -688l-221 703z" />
<glyph unicode="w" horiz-adv-x="1480" d="M41 971l295 -971h219l184 655l187 -655h219l297 989h-232l-172 -645l-178 645h-217l-180 -645l-176 660z" />
<glyph unicode="x" horiz-adv-x="991" d="M45 0h244l196 330l211 -344l250 32l-319 500l301 471h-242l-184 -301l-189 316l-250 -33l299 -473z" />
<glyph unicode="y" horiz-adv-x="1015" d="M35 971l358 -975l-22 -66q-23 -53 -65 -78.5t-95 -25.5q-35 0 -62.5 4t-52.5 10l33 -202q16 -4 36.5 -7.5t53.5 -3.5q72 0 129.5 15.5t104.5 52.5t86 98.5t71 153.5l375 1042h-244l-221 -690l-229 705z" />
<glyph unicode="z" horiz-adv-x="942" d="M66 0h813l-33 197h-486l494 604v188h-768l33 -196h438l-491 -605v-188z" />
<glyph unicode="{" horiz-adv-x="1005" d="M68 682l24 -162h64q94 0 152.5 -41t58.5 -147q0 -72 -14.5 -138.5t-14.5 -138.5q0 -127 77 -197.5t230 -70.5h277l-27 166h-182q-72 0 -102.5 31.5t-30.5 89.5q0 61 13 128.5t13 133.5q0 123 -58.5 181t-162.5 81v4q102 23 161.5 82t59.5 180q0 68 -13 134.5t-13 127.5 q0 59 31.5 91t103.5 32h198v164h-268q-154 0 -230.5 -69.5t-76.5 -198.5q0 -72 14.5 -138.5t14.5 -138.5q0 -104 -57.5 -145t-151.5 -41h-90z" />
<glyph unicode="|" horiz-adv-x="579" d="M184 -381l211 33v1827l-211 -33v-1827z" />
<glyph unicode="}" horiz-adv-x="1005" d="M82 1413l27 -164h182q137 0 137 -119q0 -63 -14.5 -130.5t-14.5 -135.5q0 -121 59.5 -180t162.5 -82v-4q-104 -23 -163 -81t-59 -181q0 -66 14.5 -134.5t14.5 -129.5q0 -119 -137 -119h-199v-166h268q156 0 232 70.5t76 197.5q0 72 -14.5 138.5t-14.5 138.5 q0 106 56.5 147t152.5 41h90l-25 162h-63q-96 0 -153.5 41t-57.5 145q0 72 14.5 139.5t14.5 137.5q0 129 -76 198.5t-232 69.5h-278z" />
<glyph unicode="~" horiz-adv-x="837" d="M90 471l131 -29q12 57 27.5 78t38.5 21t48 -10.5t85 -38.5q41 -20 73.5 -31.5t71.5 -11.5q74 0 120.5 61.5t62.5 198.5l-132 28q-14 -57 -28.5 -77.5t-36.5 -20.5q-25 0 -50.5 9t-84.5 38q-41 20 -73 31.5t-71 11.5q-76 0 -121 -59.5t-61 -198.5z" />
<glyph unicode="&#xa1;" horiz-adv-x="581" d="M139 0h303l-75 961l-154 -35zM156 1114h268v299h-268v-299z" />
<glyph unicode="&#xa2;" horiz-adv-x="999" d="M86 688q0 -199 93 -322.5t253 -162.5l-31 -191l144 -32l33 206q98 0 177 23.5t156 73.5l-26 196q-78 -53 -145.5 -72.5t-139.5 -19.5l92 598q49 -10 93 -30.5t87 -49.5l31 211q-74 45 -170 66l29 190l-144 31l-32 -207h-6q-104 0 -195.5 -34t-157 -98.5t-103.5 -158.5 t-38 -217zM319 690q0 147 65 223t179 84l-90 -587q-74 29 -114 98.5t-40 181.5z" />
<glyph unicode="&#xa3;" horiz-adv-x="1112" d="M94 0h940l-37 215h-632l114 365h406l-35 211h-303l57 184q37 115 90.5 162t145.5 47q84 0 153 -21l33 223q-41 10 -89 17.5t-108 7.5q-182 0 -289.5 -85t-166.5 -277l-82 -258h-197v-211h129l-129 -406v-174z" />
<glyph unicode="&#xa4;" horiz-adv-x="1228" d="M43 612l23 -151h172q47 -225 189 -355.5t378 -130.5q111 0 203 30t170 77l-37 215q-74 -49 -147.5 -75.5t-159.5 -26.5q-127 0 -210 68.5t-120 197.5h448v151h-473q-2 20 -2 39v41q0 25 1 48.5t3 45.5h484l-25 152h-432q37 121 115.5 187.5t195.5 66.5q92 0 160 -26.5 t139 -73.5l37 225q-72 43 -157 67.5t-193 24.5q-111 0 -203 -34t-162.5 -95t-120 -148.5t-75.5 -193.5h-191v-152h166q-2 -23 -3 -47t-1 -49v-41q0 -18 2 -37h-174z" />
<glyph unicode="&#xa5;" horiz-adv-x="1277" d="M33 1354l432 -748h-289v-147h328v-146h-338l22 -147h316v-166h256v166h327v147h-327v146h338l-23 147h-278l450 778h-276l-328 -622l-340 637z" />
<glyph unicode="&#xa6;" horiz-adv-x="1024" d="M51 -410h922v2048h-922v-2048z" />
<glyph unicode="&#xa7;" horiz-adv-x="1122" d="M78 643q0 -102 67.5 -158.5t225.5 -93.5l180 -43q76 -16 108.5 -37.5t32.5 -62.5q0 -39 -32.5 -64.5t-98.5 -25.5q-74 0 -149.5 18.5t-147.5 52.5l-31 -186q78 -31 156 -45t180 -14q76 0 141.5 19.5t111.5 56t73 89t27 117.5q0 63 -21.5 107.5t-62.5 77t-98.5 54 t-131.5 38.5l-135 30q-106 25 -142 51.5t-36 73.5q0 27 9 55.5t26 55.5l-187 33q-27 -39 -46 -90.5t-19 -108.5zM201 1118q0 -63 21.5 -107t62.5 -77t98 -54.5t131 -37.5l133 -31q106 -25 143 -51.5t37 -73.5q0 -27 -10 -55.5t-24 -55.5l186 -32q27 39 45 90t18 108 q0 102 -67.5 158.5t-222.5 93.5l-183 43q-74 16 -106.5 38t-32.5 63q0 39 33 64.5t98 25.5q74 0 148.5 -18.5t146.5 -53.5l31 186q-76 31 -155 45.5t-179 14.5q-78 0 -142.5 -20.5t-110.5 -57.5t-72.5 -89t-26.5 -116z" />
<glyph unicode="&#xa8;" d="M154 1126h235v236h-235v-236zM541 1126h235v236h-235v-236z" />
<glyph unicode="&#xa9;" horiz-adv-x="1636" d="M111 705q0 -164 51 -298.5t144 -230.5t223 -149.5t288 -53.5q156 0 287 53.5t224 150.5t145.5 232.5t52.5 299.5t-51.5 298t-144.5 230t-223 149.5t-288 53.5t-288 -53.5t-223 -150.5t-145 -232.5t-52 -298.5zM201 707q0 160 47 282.5t130 206.5t195.5 127t245.5 43 q129 0 242 -43t195.5 -127t131 -206.5t48.5 -282.5t-47.5 -283t-130 -207t-195.5 -127t-244 -43t-243.5 43t-195.5 127t-131 207t-48 283zM451 713q0 -94 27.5 -171t79.5 -132.5t126 -85t166 -29.5q72 0 135.5 20.5t122.5 55.5l-27 159q-59 -41 -112.5 -58t-106.5 -17 q-102 0 -162.5 69.5t-60.5 188.5q0 117 57.5 188.5t159.5 71.5q55 0 105.5 -17.5t105.5 -58.5l27 170q-53 29 -113.5 46t-132.5 17q-88 0 -162 -30.5t-126 -86t-80.5 -132t-28.5 -168.5z" />
<glyph unicode="&#xaa;" horiz-adv-x="800" d="M102 897q0 -84 51.5 -132t137.5 -48q72 0 124 25.5t95 66.5l12 -80h150v447q0 117 -64.5 168t-193.5 51q-80 0 -144.5 -14.5t-124.5 -41.5l21 -135q55 25 108.5 40.5t110.5 15.5q53 0 84 -20.5t31 -74.5v-16q-201 -18 -299.5 -75.5t-98.5 -176.5zM111 455h579l-22 135 h-557v-135zM270 918q0 20 10.5 40.5t36 37t70.5 29.5t113 22v-132q-35 -33 -74 -51t-80 -18q-76 0 -76 72z" />
<glyph unicode="&#xab;" horiz-adv-x="1124" d="M57 496l342 -510l176 39l-247 471l260 493h-197zM512 496l338 -510l180 39l-250 471l260 493h-196z" />
<glyph unicode="&#xac;" horiz-adv-x="1171" d="M111 588h950v209h-950v-209z" />
<glyph unicode="&#xad;" horiz-adv-x="724" d="M96 471h533v236h-533v-236z" />
<glyph unicode="&#xae;" horiz-adv-x="1153" d="M111 963q0 -106 33.5 -194.5t95 -151t147.5 -96.5t188 -34q100 0 186.5 35t148 97.5t96 150t34.5 193.5t-33.5 194t-95 150.5t-147.5 97.5t-189 35q-102 0 -187 -35t-146.5 -98.5t-96 -150.5t-34.5 -193zM178 963q0 100 31 179t85 133t126 81.5t155 27.5q82 0 156 -27.5 t127 -81.5t85 -133t32 -179t-31 -178t-85 -132.5t-127 -82t-157 -27.5t-155.5 27.5t-125.5 82t-85 132t-31 178.5zM399 717h117v201h39l139 -207l121 20l-141 207q100 39 100 145q0 78 -51 119t-143 41h-181v-526zM516 999v150h55q86 0 86 -74q0 -76 -88 -76h-53z" />
<glyph unicode="&#xaf;" d="M186 1161h557v180h-557v-180z" />
<glyph unicode="&#xb0;" horiz-adv-x="892" d="M94 1042q0 -76 26.5 -140t73 -110.5t111 -72t141.5 -25.5q76 0 141.5 25.5t111.5 72t73 110.5t27 140t-27 141.5t-73 112.5t-111.5 74t-141.5 27q-78 0 -142 -27t-110.5 -74t-73 -112.5t-26.5 -141.5zM256 1042q0 88 53 146.5t137 58.5t137.5 -58.5t53.5 -146.5 t-53.5 -143t-137.5 -55t-137 55t-53 143z" />
<glyph unicode="&#xb1;" horiz-adv-x="1226" d="M61 295h672v-295h242v295h207v194h-207v379l-242 -51v-328h-403l583 852l-235 54l-617 -918v-182z" />
<glyph unicode="&#xb2;" horiz-adv-x="1024" d="M51 -410h922v2048h-922v-2048z" />
<glyph unicode="&#xb3;" horiz-adv-x="1024" d="M51 -410h922v2048h-922v-2048z" />
<glyph unicode="&#xb4;" d="M256 1120h162l287 254l-297 56z" />
<glyph unicode="&#xb5;" horiz-adv-x="1171" d="M133 999l316 -309l-314 -309l139 -139l310 313l309 -315l145 145l-315 309l313 310l-139 139l-309 -314l-309 316z" />
<glyph unicode="&#xb6;" horiz-adv-x="1112" d="M72 946q0 -217 135 -326.5t364 -119.5l72 430v315h139v-1245h174v1384h-378q-236 0 -371 -113.5t-135 -324.5z" />
<glyph unicode="&#xb7;" horiz-adv-x="497" d="M115 438h268v299h-268v-299z" />
<glyph unicode="&#xb8;" d="M233 -373h162l269 219l-297 58z" />
<glyph unicode="&#xb9;" horiz-adv-x="1024" d="M51 -410h922v2048h-922v-2048z" />
<glyph unicode="&#xba;" horiz-adv-x="804" d="M86 1055q0 -80 23.5 -143.5t65.5 -106.5t100.5 -66.5t125.5 -23.5q70 0 128.5 23.5t101.5 66.5t66.5 106.5t23.5 143.5t-23.5 142.5t-66.5 106.5t-101.5 67.5t-128.5 23.5q-68 0 -126 -23.5t-100 -67.5t-65.5 -106.5t-23.5 -142.5zM106 455h601l-23 135h-578v-135z M260 1055q0 86 36 141t105 55q72 0 108 -55t36 -141t-36 -142.5t-108 -56.5q-70 0 -105.5 56.5t-35.5 142.5z" />
<glyph unicode="&#xbb;" horiz-adv-x="1124" d="M82 0h199l333 494l-342 510l-178 -37l250 -473zM537 0h196l332 494l-340 510l-178 -37l250 -473z" />
<glyph unicode="&#xbc;" horiz-adv-x="1024" d="M51 -410h922v2048h-922v-2048z" />
<glyph unicode="&#xbd;" horiz-adv-x="1024" d="M51 -410h922v2048h-922v-2048z" />
<glyph unicode="&#xbe;" horiz-adv-x="1024" d="M51 -410h922v2048h-922v-2048z" />
<glyph unicode="&#xbf;" horiz-adv-x="1048" d="M82 350q0 -178 117.5 -277.5t320.5 -99.5q141 0 253 41t204 107l-35 237q-88 -68 -186.5 -111.5t-208.5 -43.5q-92 0 -148.5 44t-56.5 122q0 43 15.5 76.5t48 62.5t85 54.5t125.5 53.5l64 25l-25 326l-149 -33l-12 -141q-98 -37 -175 -78t-129.5 -93.5t-80 -119 t-27.5 -152.5zM457 1114h270v299h-270v-299z" />
<glyph unicode="&#xc0;" horiz-adv-x="1423" d="M43 0h268l129 358h535l135 -372l270 49l-518 1384h-289zM346 1778l289 -254h162l-150 309zM514 580l193 544l192 -544h-385z" />
<glyph unicode="&#xc1;" horiz-adv-x="1423" d="M43 0h268l129 358h535l135 -372l270 49l-518 1384h-289zM514 580l193 544l192 -544h-385zM635 1524h162l286 254l-297 55z" />
<glyph unicode="&#xc2;" horiz-adv-x="1423" d="M43 0h268l129 358h535l135 -372l270 49l-518 1384h-289zM395 1505h156l162 133l168 -141l141 29l-193 274h-229zM514 580l193 544l192 -544h-385z" />
<glyph unicode="&#xc3;" horiz-adv-x="1423" d="M43 0h268l129 358h535l135 -372l270 49l-518 1384h-289zM383 1548l133 -28q12 59 27.5 78.5t38.5 19.5t48 -10.5t85 -36.5q41 -20 72.5 -31.5t72.5 -11.5q74 0 120 60.5t62 197.5l-133 29q-12 -57 -27.5 -78t-37.5 -21q-23 0 -48.5 10.5t-84.5 38.5q-41 20 -73 31.5 t-73 11.5q-74 0 -120 -60t-62 -200zM514 580l193 544l192 -544h-385z" />
<glyph unicode="&#xc4;" horiz-adv-x="1423" d="M43 0h268l129 358h535l135 -372l270 49l-518 1384h-289zM401 1530h236v235h-236v-235zM514 580l193 544l192 -544h-385zM788 1530h236v235h-236v-235z" />
<glyph unicode="&#xc5;" horiz-adv-x="1423" d="M43 0h268l129 358h535l135 -372l270 49l-518 1384h-289zM471 1735q0 -92 64.5 -153.5t177.5 -61.5t177 61.5t64 153.5t-64.5 154.5t-176.5 62.5q-113 0 -177.5 -62.5t-64.5 -154.5zM514 580l193 544l192 -544h-385zM602 1735q0 49 31 84.5t80 35.5t79.5 -35.5t30.5 -84.5 q0 -51 -30.5 -86t-79.5 -35t-80 34.5t-31 86.5z" />
<glyph unicode="&#xc6;" horiz-adv-x="1830" d="M4 0h283l192 358h445v-358h835v229h-575v389h465l-37 234h-428v332h555v229h-981zM588 580l336 645v-645h-336z" />
<glyph unicode="&#xc7;" horiz-adv-x="1280" d="M94 705q0 -164 47 -299.5t134 -230.5t211 -147.5t278 -52.5q121 0 225.5 34t190.5 87l-37 234q-82 -53 -171 -86t-188 -33q-188 0 -300.5 130t-112.5 366q0 231 107.5 364t295.5 133q104 0 189.5 -35.5t154.5 -89.5l39 256q-78 47 -175 75t-220 28q-150 0 -272.5 -53.5 t-211 -149.5t-136.5 -231.5t-48 -298.5zM463 -385h162l268 219l-297 57z" />
<glyph unicode="&#xc8;" horiz-adv-x="1060" d="M150 0h841v229h-573v389h463l-37 234h-426v332h553v229h-821v-1413zM236 1778l288 -254h162l-149 309z" />
<glyph unicode="&#xc9;" horiz-adv-x="1060" d="M150 0h841v229h-573v389h463l-37 234h-426v332h553v229h-821v-1413zM406 1524h161l287 254l-297 55z" />
<glyph unicode="&#xca;" horiz-adv-x="1060" d="M150 0h841v229h-573v389h463l-37 234h-426v332h553v229h-821v-1413zM233 1524h156l162 133l168 -141l141 28l-192 275h-230z" />
<glyph unicode="&#xcb;" horiz-adv-x="1060" d="M150 0h841v229h-573v389h463l-37 234h-426v332h553v229h-821v-1413zM240 1530h235v235h-235v-235zM627 1530h235v235h-235v-235z" />
<glyph unicode="&#xcc;" horiz-adv-x="589" d="M-66 1778l289 -254h162l-149 309zM160 0h272v1413h-272v-1413z" />
<glyph unicode="&#xcd;" horiz-adv-x="589" d="M160 0h272v1413h-272v-1413zM209 1524h162l286 254l-297 55z" />
<glyph unicode="&#xce;" horiz-adv-x="589" d="M-20 1505h155l162 133l168 -141l141 29l-192 274h-230zM160 0h272v1413h-272v-1413z" />
<glyph unicode="&#xcf;" horiz-adv-x="589" d="M-14 1530h235v235h-235v-235zM160 0h272v1413h-272v-1413zM373 1530h235v235h-235v-235z" />
<glyph unicode="&#xd0;" horiz-adv-x="1499" d="M29 848l39 -234h143v-614h446q180 0 318.5 51t234 145.5t144.5 224.5t49 288q0 156 -47 285.5t-141.5 223t-233.5 144.5t-324 51h-446v-565h-182zM475 223v391h305v232h-305v344h180q106 0 193.5 -30t150 -90t96 -150t33.5 -213q0 -250 -128 -367t-347 -117h-178z" />
<glyph unicode="&#xd1;" horiz-adv-x="1441" d="M150 0h251v973l666 -973h225v1413h-252v-926l-634 926h-256v-1413zM395 1518l133 -29q12 59 27.5 78.5t38.5 19.5t48.5 -10t84.5 -37q41 -20 72.5 -31.5t72.5 -11.5q74 0 120.5 60.5t62.5 197.5l-133 29q-12 -57 -27.5 -77.5t-38.5 -20.5t-48.5 10t-84.5 39 q-41 20 -73 31.5t-72 11.5q-74 0 -120 -60.5t-63 -199.5z" />
<glyph unicode="&#xd2;" horiz-adv-x="1515" d="M94 705q0 -164 47 -298.5t133 -230.5t208 -149.5t274 -53.5t274.5 53.5t209.5 150.5t134 232.5t47 299.5t-46 298t-132 230t-209 149.5t-274 53.5q-152 0 -275 -53.5t-210 -150.5t-134 -232.5t-47 -298.5zM371 707q0 117 26.5 210t76.5 159.5t122 102t162 35.5 t162.5 -35.5t123 -102t77 -159.5t26.5 -210t-26.5 -210.5t-77 -160t-122 -102t-163.5 -35.5q-90 0 -162 35.5t-122 102t-76.5 160t-26.5 210.5zM410 1796l288 -254h162l-149 309z" />
<glyph unicode="&#xd3;" horiz-adv-x="1515" d="M94 705q0 -164 47 -298.5t133 -230.5t208 -149.5t274 -53.5t274.5 53.5t209.5 150.5t134 232.5t47 299.5t-46 298t-132 230t-209 149.5t-274 53.5q-152 0 -275 -53.5t-210 -150.5t-134 -232.5t-47 -298.5zM371 707q0 117 26.5 210t76.5 159.5t122 102t162 35.5 t162.5 -35.5t123 -102t77 -159.5t26.5 -210t-26.5 -210.5t-77 -160t-122 -102t-163.5 -35.5q-90 0 -162 35.5t-122 102t-76.5 160t-26.5 210.5zM641 1542h162l287 254l-297 55z" />
<glyph unicode="&#xd4;" horiz-adv-x="1515" d="M94 705q0 -164 47 -298.5t133 -230.5t208 -149.5t274 -53.5t274.5 53.5t209.5 150.5t134 232.5t47 299.5t-46 298t-132 230t-209 149.5t-274 53.5q-152 0 -275 -53.5t-210 -150.5t-134 -232.5t-47 -298.5zM371 707q0 117 26.5 210t76.5 159.5t122 102t162 35.5 t162.5 -35.5t123 -102t77 -159.5t26.5 -210t-26.5 -210.5t-77 -160t-122 -102t-163.5 -35.5q-90 0 -162 35.5t-122 102t-76.5 160t-26.5 210.5zM440 1534h156l162 133l168 -141l141 28l-193 275h-229z" />
<glyph unicode="&#xd5;" horiz-adv-x="1515" d="M94 705q0 -164 47 -298.5t133 -230.5t208 -149.5t274 -53.5t274.5 53.5t209.5 150.5t134 232.5t47 299.5t-46 298t-132 230t-209 149.5t-274 53.5q-152 0 -275 -53.5t-210 -150.5t-134 -232.5t-47 -298.5zM371 707q0 117 26.5 210t76.5 159.5t122 102t162 35.5 t162.5 -35.5t123 -102t77 -159.5t26.5 -210t-26.5 -210.5t-77 -160t-122 -102t-163.5 -35.5q-90 0 -162 35.5t-122 102t-76.5 160t-26.5 210.5zM428 1573l133 -29q12 59 27.5 78.5t38.5 19.5t48 -10t85 -37q41 -20 72.5 -31.5t72.5 -11.5q74 0 120 60.5t62 197.5l-133 29 q-12 -57 -27.5 -77.5t-37.5 -20.5q-23 0 -48.5 10t-84.5 39q-41 20 -73 31.5t-73 11.5q-74 0 -120 -60.5t-62 -199.5z" />
<glyph unicode="&#xd6;" horiz-adv-x="1515" d="M94 705q0 -164 47 -298.5t133 -230.5t208 -149.5t274 -53.5t274.5 53.5t209.5 150.5t134 232.5t47 299.5t-46 298t-132 230t-209 149.5t-274 53.5q-152 0 -275 -53.5t-210 -150.5t-134 -232.5t-47 -298.5zM371 707q0 117 26.5 210t76.5 159.5t122 102t162 35.5 t162.5 -35.5t123 -102t77 -159.5t26.5 -210t-26.5 -210.5t-77 -160t-122 -102t-163.5 -35.5q-90 0 -162 35.5t-122 102t-76.5 160t-26.5 210.5zM446 1548h236v236h-236v-236zM834 1548h235v236h-235v-236z" />
<glyph unicode="&#xd7;" horiz-adv-x="1024" d="M51 -410h922v2048h-922v-2048z" />
<glyph unicode="&#xd8;" horiz-adv-x="1515" d="M80 23l190 -41l97 114q80 -59 177 -91t214 -32q150 0 272.5 53.5t209.5 149.5t134 231.5t47 299.5q0 147 -36.5 269t-108.5 214l162 201l-191 41l-94 -115q-80 59 -179.5 91t-215.5 32q-150 0 -273 -53.5t-210 -149.5t-134 -231.5t-47 -298.5q0 -147 38 -269.5 t110 -216.5zM367 707q0 117 26.5 212t77.5 162.5t123 104.5t164 37q74 0 135 -23.5t108 -66.5l-577 -711q-57 115 -57 285zM516 281l580 710q55 -116 55 -284q0 -117 -26.5 -212.5t-78 -163t-124 -104.5t-164.5 -37q-72 0 -133.5 24t-108.5 67z" />
<glyph unicode="&#xd9;" horiz-adv-x="1409" d="M135 547q0 -139 40 -245.5t113.5 -178.5t178 -110t233.5 -38t234.5 38t181.5 111t118 180.5t42 248.5v860h-272v-858q0 -164 -75 -254t-227 -90q-150 0 -223 94t-73 256v852h-271v-866zM369 1739l288 -254h162l-149 309z" />
<glyph unicode="&#xda;" horiz-adv-x="1409" d="M135 547q0 -139 40 -245.5t113.5 -178.5t178 -110t233.5 -38t234.5 38t181.5 111t118 180.5t42 248.5v860h-272v-858q0 -164 -75 -254t-227 -90q-150 0 -223 94t-73 256v852h-271v-866zM590 1485h162l286 254l-297 55z" />
<glyph unicode="&#xdb;" horiz-adv-x="1409" d="M135 547q0 -139 40 -245.5t113.5 -178.5t178 -110t233.5 -38t234.5 38t181.5 111t118 180.5t42 248.5v860h-272v-858q0 -164 -75 -254t-227 -90q-150 0 -223 94t-73 256v852h-271v-866zM387 1493h156l162 133l167 -141l142 28l-193 275h-229z" />
<glyph unicode="&#xdc;" horiz-adv-x="1409" d="M135 547q0 -139 40 -245.5t113.5 -178.5t178 -110t233.5 -38t234.5 38t181.5 111t118 180.5t42 248.5v860h-272v-858q0 -164 -75 -254t-227 -90q-150 0 -223 94t-73 256v852h-271v-866zM393 1499h236v236h-236v-236zM780 1499h236v236h-236v-236z" />
<glyph unicode="&#xdd;" horiz-adv-x="1339" d="M33 1382l493 -843v-539h273v541l512 872h-291l-346 -625l-359 639zM569 1475h162l287 254l-297 55z" />
<glyph unicode="&#xde;" horiz-adv-x="1144" d="M150 0h270v276h121q121 0 221 29t171 86.5t109.5 143t38.5 200.5q0 215 -138 324.5t-380 109.5h-143v244h-270v-1413zM420 494v458h129q266 0 266 -223q0 -123 -72.5 -179t-203.5 -56h-119z" />
<glyph unicode="&#xdf;" horiz-adv-x="1255" d="M39 788h141v-788h246v1081q0 86 39 135.5t110 49.5q68 0 106 -44t38 -126q0 -96 -41 -186.5t-107 -182.5l27 -174q119 -31 190.5 -62.5t110.5 -64.5t51.5 -66.5t12.5 -66.5q0 -57 -38 -88t-100 -31q-59 0 -124.5 22.5t-127.5 63.5l-32 -203q63 -35 141 -55t156 -20 q162 0 260 81.5t98 243.5q0 158 -102.5 251t-315.5 153q76 90 129.5 184t53.5 217q0 162 -98.5 255t-287.5 93q-186 0 -290.5 -102.5t-104.5 -296.5v-72h-141v-201z" />
<glyph unicode="&#xe0;" horiz-adv-x="1030" d="M70 254q0 -129 76.5 -201.5t203.5 -72.5q111 0 191 43t139 106l20 -129h211v678q0 178 -95 255t-288 77q-119 0 -213 -22.5t-180 -57.5l31 -197q80 35 162 57.5t168 22.5q82 0 126 -34t44 -113v-29q-301 -29 -448.5 -116t-147.5 -267zM170 1374l289 -254h162l-150 310z M313 281q0 35 15.5 67.5t54.5 60t107.5 50t175.5 35.5v-222q-51 -51 -109.5 -78.5t-122.5 -27.5q-57 0 -89 30.5t-32 84.5z" />
<glyph unicode="&#xe1;" horiz-adv-x="1030" d="M70 254q0 -129 76.5 -201.5t203.5 -72.5q111 0 191 43t139 106l20 -129h211v678q0 178 -95 255t-288 77q-119 0 -213 -22.5t-180 -57.5l31 -197q80 35 162 57.5t168 22.5q82 0 126 -34t44 -113v-29q-301 -29 -448.5 -116t-147.5 -267zM313 281q0 35 15.5 67.5t54.5 60 t107.5 50t175.5 35.5v-222q-51 -51 -109.5 -78.5t-122.5 -27.5q-57 0 -89 30.5t-32 84.5zM395 1120h162l287 254l-297 56z" />
<glyph unicode="&#xe2;" horiz-adv-x="1030" d="M70 254q0 -129 76.5 -201.5t203.5 -72.5q111 0 191 43t139 106l20 -129h211v678q0 178 -95 255t-288 77q-119 0 -213 -22.5t-180 -57.5l31 -197q80 35 162 57.5t168 22.5q82 0 126 -34t44 -113v-29q-301 -29 -448.5 -116t-147.5 -267zM193 1120h155l162 133l168 -141 l141 29l-192 274h-230zM313 281q0 35 15.5 67.5t54.5 60t107.5 50t175.5 35.5v-222q-51 -51 -109.5 -78.5t-122.5 -27.5q-57 0 -89 30.5t-32 84.5z" />
<glyph unicode="&#xe3;" horiz-adv-x="1030" d="M70 254q0 -129 76.5 -201.5t203.5 -72.5q111 0 191 43t139 106l20 -129h211v678q0 178 -95 255t-288 77q-119 0 -213 -22.5t-180 -57.5l31 -197q80 35 162 57.5t168 22.5q82 0 126 -34t44 -113v-29q-301 -29 -448.5 -116t-147.5 -267zM188 1145l134 -29q12 59 27.5 78.5 t37.5 19.5q23 0 48.5 -10t84.5 -37q41 -20 73 -31.5t73 -11.5q74 0 120 60.5t62 197.5l-133 29q-12 -57 -27.5 -77.5t-38.5 -20.5t-48.5 10t-84.5 39q-41 20 -72.5 31.5t-72.5 11.5q-74 0 -120 -60.5t-63 -199.5zM313 281q0 35 15.5 67.5t54.5 60t107.5 50t175.5 35.5v-222 q-51 -51 -109.5 -78.5t-122.5 -27.5q-57 0 -89 30.5t-32 84.5z" />
<glyph unicode="&#xe4;" horiz-adv-x="1030" d="M70 254q0 -129 76.5 -201.5t203.5 -72.5q111 0 191 43t139 106l20 -129h211v678q0 178 -95 255t-288 77q-119 0 -213 -22.5t-180 -57.5l31 -197q80 35 162 57.5t168 22.5q82 0 126 -34t44 -113v-29q-301 -29 -448.5 -116t-147.5 -267zM207 1126h235v236h-235v-236z M313 281q0 35 15.5 67.5t54.5 60t107.5 50t175.5 35.5v-222q-51 -51 -109.5 -78.5t-122.5 -27.5q-57 0 -89 30.5t-32 84.5zM594 1126h235v236h-235v-236z" />
<glyph unicode="&#xe5;" horiz-adv-x="1030" d="M70 254q0 -129 76.5 -201.5t203.5 -72.5q111 0 191 43t139 106l20 -129h211v678q0 178 -95 255t-288 77q-119 0 -213 -22.5t-180 -57.5l31 -197q80 35 162 57.5t168 22.5q82 0 126 -34t44 -113v-29q-301 -29 -448.5 -116t-147.5 -267zM268 1331q0 -92 64.5 -153.5 t177.5 -61.5t177.5 61.5t64.5 153.5t-64.5 154.5t-177.5 62.5t-177.5 -62.5t-64.5 -154.5zM313 281q0 35 15.5 67.5t54.5 60t107.5 50t175.5 35.5v-222q-51 -51 -109.5 -78.5t-122.5 -27.5q-57 0 -89 30.5t-32 84.5zM399 1331q0 49 31 85t80 36t80 -36t31 -85q0 -51 -31 -86 t-80 -35t-80 35t-31 86z" />
<glyph unicode="&#xe6;" horiz-adv-x="1607" d="M70 254q0 -68 23.5 -120t66.5 -86t101 -51t126 -17q115 0 206 43t169 110q66 -78 162 -115.5t213 -37.5q121 0 218 32.5t177 87.5l-29 193q-82 -57 -164 -90t-176 -33q-115 0 -185.5 65.5t-80.5 210.5h633q2 10 2 27v33q0 104 -24.5 196.5t-77 161t-131 107.5t-187.5 39 q-94 0 -167 -35t-126 -101q-41 72 -111.5 104t-193.5 32q-109 0 -201 -22.5t-178 -57.5l31 -197q80 35 162 57.5t168 22.5q82 0 119.5 -34t37.5 -113v-31q-299 -29 -441 -119t-142 -262zM313 283q0 33 14.5 64.5t52.5 59t103.5 49t167.5 36.5v-3q0 -61 9.5 -115.5 t23.5 -101.5q-115 -106 -235 -106q-61 0 -98.5 29.5t-37.5 87.5zM901 600q14 123 68.5 181.5t130.5 58.5q88 0 135 -61.5t59 -178.5h-393z" />
<glyph unicode="&#xe7;" horiz-adv-x="942" d="M74 489q0 -121 34.5 -216t97 -159.5t148.5 -98t189 -33.5q94 0 172.5 21.5t154.5 74.5l-32 209q-70 -53 -130.5 -73.5t-125.5 -20.5q-113 0 -186.5 74.5t-73.5 228.5q0 147 68.5 224t174.5 77q72 0 134.5 -22.5t125.5 -69.5l35 221q-59 37 -134 60.5t-175 23.5 q-98 0 -185 -33t-151.5 -98.5t-102.5 -163t-38 -226.5zM279 -385h161l269 219l-297 57z" />
<glyph unicode="&#xe8;" horiz-adv-x="1028" d="M74 494q0 -133 36.5 -230.5t101 -161t153 -93t192.5 -29.5q121 0 218 32.5t177 87.5l-28 193q-82 -57 -163 -90t-177 -33q-115 0 -185.5 65.5t-81.5 210.5h635q0 10 1 27t1 33q0 104 -25.5 196.5t-77.5 161t-134 107.5t-193 39q-96 0 -179 -36t-143.5 -102.5t-94 -162 t-33.5 -215.5zM162 1374l289 -254h161l-149 310zM322 600q14 123 68 181.5t128 58.5q90 0 137.5 -61.5t59.5 -178.5h-393z" />
<glyph unicode="&#xe9;" horiz-adv-x="1028" d="M74 494q0 -133 36.5 -230.5t101 -161t153 -93t192.5 -29.5q121 0 218 32.5t177 87.5l-28 193q-82 -57 -163 -90t-177 -33q-115 0 -185.5 65.5t-81.5 210.5h635q0 10 1 27t1 33q0 104 -25.5 196.5t-77.5 161t-134 107.5t-193 39q-96 0 -179 -36t-143.5 -102.5t-94 -162 t-33.5 -215.5zM322 600q14 123 68 181.5t128 58.5q90 0 137.5 -61.5t59.5 -178.5h-393zM412 1120h161l287 254l-297 56z" />
<glyph unicode="&#xea;" horiz-adv-x="1028" d="M74 494q0 -133 36.5 -230.5t101 -161t153 -93t192.5 -29.5q121 0 218 32.5t177 87.5l-28 193q-82 -57 -163 -90t-177 -33q-115 0 -185.5 65.5t-81.5 210.5h635q0 10 1 27t1 33q0 104 -25.5 196.5t-77.5 161t-134 107.5t-193 39q-96 0 -179 -36t-143.5 -102.5t-94 -162 t-33.5 -215.5zM205 1120h155l162 133l168 -141l141 29l-192 274h-229zM322 600q14 123 68 181.5t128 58.5q90 0 137.5 -61.5t59.5 -178.5h-393z" />
<glyph unicode="&#xeb;" horiz-adv-x="1028" d="M74 494q0 -133 36.5 -230.5t101 -161t153 -93t192.5 -29.5q121 0 218 32.5t177 87.5l-28 193q-82 -57 -163 -90t-177 -33q-115 0 -185.5 65.5t-81.5 210.5h635q0 10 1 27t1 33q0 104 -25.5 196.5t-77.5 161t-134 107.5t-193 39q-96 0 -179 -36t-143.5 -102.5t-94 -162 t-33.5 -215.5zM211 1126h235v236h-235v-236zM322 600q14 123 68 181.5t128 58.5q90 0 137.5 -61.5t59.5 -178.5h-393zM598 1126h236v236h-236v-236z" />
<glyph unicode="&#xec;" horiz-adv-x="516" d="M-41 1374l250 -254h143l-129 310zM141 0h246v989h-246v-989z" />
<glyph unicode="&#xed;" horiz-adv-x="516" d="M141 0h246v989h-246v-989zM178 1120h139l250 254l-262 56z" />
<glyph unicode="&#xee;" horiz-adv-x="516" d="M-25 1120h142l145 133l152 -141l127 29l-174 274h-205zM141 0h246v989h-246v-989z" />
<glyph unicode="&#xef;" horiz-adv-x="516" d="M-10 1126h207v236h-207v-236zM141 0h246v989h-246v-989zM322 1126h208v236h-208v-236z" />
<glyph unicode="&#xf0;" horiz-adv-x="1103" d="M74 449q0 -111 34.5 -198t95 -147.5t143.5 -92t181 -31.5t177 29.5t145 94.5q82 86 128 214.5t46 306.5q0 231 -76 394t-217 273l109 154l-168 33l-70 -107q-125 66 -293 107l-30 -197q111 -31 202 -80l-114 -168h172l61 88q66 -55 110 -126.5t60 -170.5q-59 49 -133 77 t-160 28t-159.5 -36t-128 -99.5t-85 -152.5t-30.5 -193zM315 449q0 133 59.5 209.5t160.5 76.5q66 0 132 -28.5t119 -73.5v-41q0 -199 -66.5 -308.5t-176.5 -109.5q-104 0 -166 75t-62 200z" />
<glyph unicode="&#xf1;" horiz-adv-x="1089" d="M125 0h246v668q53 57 109.5 91t115.5 34q68 0 97.5 -40t29.5 -106v-647h246v713q0 139 -72 218t-211 79q-100 0 -180 -47.5t-150 -112.5l-22 139h-209v-989zM223 1145l133 -29q12 59 27.5 78.5t38.5 19.5t48.5 -10t84.5 -37q41 -20 72.5 -31.5t72.5 -11.5 q74 0 120.5 60.5t62.5 197.5l-133 29q-12 -57 -27.5 -77.5t-38.5 -20.5t-48.5 10t-84.5 39q-41 20 -73 31.5t-72 11.5q-74 0 -120 -60.5t-63 -199.5z" />
<glyph unicode="&#xf2;" horiz-adv-x="1079" d="M74 494q0 -121 34.5 -216.5t96 -162t146.5 -101t186 -34.5q100 0 186 34.5t149.5 101t98.5 162t35 216.5t-35 216t-97.5 161.5t-148.5 102.5t-186 36t-185.5 -36t-148 -102.5t-97 -162t-34.5 -215.5zM174 1374l289 -254h162l-150 310zM313 494q0 139 56.5 226t167.5 87 t170 -88t59 -225q0 -139 -57.5 -226.5t-171.5 -87.5q-109 0 -166.5 89t-57.5 225z" />
<glyph unicode="&#xf3;" horiz-adv-x="1079" d="M74 494q0 -121 34.5 -216.5t96 -162t146.5 -101t186 -34.5q100 0 186 34.5t149.5 101t98.5 162t35 216.5t-35 216t-97.5 161.5t-148.5 102.5t-186 36t-185.5 -36t-148 -102.5t-97 -162t-34.5 -215.5zM313 494q0 139 56.5 226t167.5 87t170 -88t59 -225 q0 -139 -57.5 -226.5t-171.5 -87.5q-109 0 -166.5 89t-57.5 225zM451 1120h161l287 254l-297 56z" />
<glyph unicode="&#xf4;" horiz-adv-x="1079" d="M74 494q0 -121 34.5 -216.5t96 -162t146.5 -101t186 -34.5q100 0 186 34.5t149.5 101t98.5 162t35 216.5t-35 216t-97.5 161.5t-148.5 102.5t-186 36t-185.5 -36t-148 -102.5t-97 -162t-34.5 -215.5zM219 1120h156l162 133l168 -141l141 29l-193 274h-229zM313 494 q0 139 56.5 226t167.5 87t170 -88t59 -225q0 -139 -57.5 -226.5t-171.5 -87.5q-109 0 -166.5 89t-57.5 225z" />
<glyph unicode="&#xf5;" horiz-adv-x="1079" d="M74 494q0 -121 34.5 -216.5t96 -162t146.5 -101t186 -34.5q100 0 186 34.5t149.5 101t98.5 162t35 216.5t-35 216t-97.5 161.5t-148.5 102.5t-186 36t-185.5 -36t-148 -102.5t-97 -162t-34.5 -215.5zM209 1145l133 -29q12 59 27.5 78.5t38.5 19.5t48 -10t85 -37 q41 -20 72.5 -31.5t72.5 -11.5q74 0 120 60.5t62 197.5l-133 29q-12 -57 -27.5 -77.5t-37.5 -20.5q-23 0 -48.5 10t-84.5 39q-41 20 -73 31.5t-73 11.5q-74 0 -120 -60.5t-62 -199.5zM313 494q0 139 56.5 226t167.5 87t170 -88t59 -225q0 -139 -57.5 -226.5t-171.5 -87.5 q-109 0 -166.5 89t-57.5 225z" />
<glyph unicode="&#xf6;" horiz-adv-x="1079" d="M74 494q0 -121 34.5 -216.5t96 -162t146.5 -101t186 -34.5q100 0 186 34.5t149.5 101t98.5 162t35 216.5t-35 216t-97.5 161.5t-148.5 102.5t-186 36t-185.5 -36t-148 -102.5t-97 -162t-34.5 -215.5zM225 1126h236v236h-236v-236zM313 494q0 139 56.5 226t167.5 87 t170 -88t59 -225q0 -139 -57.5 -226.5t-171.5 -87.5q-109 0 -166.5 89t-57.5 225zM612 1126h236v236h-236v-236z" />
<glyph unicode="&#xf7;" horiz-adv-x="1171" d="M111 596h950v192h-950v-192zM467 180h238v244h-238v-244zM467 961h238v243h-238v-243z" />
<glyph unicode="&#xf8;" horiz-adv-x="1079" d="M57 18l158 -34l59 73q55 -37 122 -57t145 -20q98 0 184 34.5t148.5 101t98.5 162t36 216.5q0 104 -26 188t-73 147l113 142l-158 35l-59 -74q-115 78 -268 78q-98 0 -183.5 -36t-148 -102.5t-97 -162t-34.5 -215.5q0 -203 98 -336zM307 494q0 143 58.5 233t173.5 90 q82 0 135 -49l-342 -432q-25 70 -25 158zM403 221l342 432q27 -68 27 -159q0 -141 -59.5 -231.5t-173.5 -90.5q-41 0 -74 13.5t-62 35.5z" />
<glyph unicode="&#xf9;" horiz-adv-x="1089" d="M121 279q0 -141 70.5 -220t211.5 -79q98 0 179.5 47t150.5 112l23 -139h209v989h-246v-667q-53 -55 -110.5 -89t-116.5 -34q-66 0 -95.5 38.5t-29.5 104.5v647h-246v-710zM180 1374l289 -254h162l-150 310z" />
<glyph unicode="&#xfa;" horiz-adv-x="1089" d="M121 279q0 -141 70.5 -220t211.5 -79q98 0 179.5 47t150.5 112l23 -139h209v989h-246v-667q-53 -55 -110.5 -89t-116.5 -34q-66 0 -95.5 38.5t-29.5 104.5v647h-246v-710zM422 1120h162l286 254l-297 56z" />
<glyph unicode="&#xfb;" horiz-adv-x="1089" d="M121 279q0 -141 70.5 -220t211.5 -79q98 0 179.5 47t150.5 112l23 -139h209v989h-246v-667q-53 -55 -110.5 -89t-116.5 -34q-66 0 -95.5 38.5t-29.5 104.5v647h-246v-710zM227 1120h156l162 133l168 -141l141 29l-192 274h-230z" />
<glyph unicode="&#xfc;" horiz-adv-x="1089" d="M121 279q0 -141 70.5 -220t211.5 -79q98 0 179.5 47t150.5 112l23 -139h209v989h-246v-667q-53 -55 -110.5 -89t-116.5 -34q-66 0 -95.5 38.5t-29.5 104.5v647h-246v-710zM236 1126h235v236h-235v-236zM623 1126h235v236h-235v-236z" />
<glyph unicode="&#xfd;" horiz-adv-x="1015" d="M35 971l358 -975l-22 -66q-23 -53 -65 -78.5t-95 -25.5q-35 0 -62.5 4t-52.5 10l33 -202q16 -4 36.5 -7.5t53.5 -3.5q72 0 129.5 15.5t104.5 52.5t86 98.5t71 153.5l375 1042h-244l-221 -690l-229 705zM426 1102h162l286 254l-296 55z" />
<glyph unicode="&#xfe;" horiz-adv-x="1107" d="M125 -381l246 37v373q45 -16 101 -27.5t128 -11.5q86 0 164 31.5t137.5 96t95 165t35.5 239.5q0 125 -28.5 216t-80 151.5t-119 90.5t-145.5 30q-98 0 -167.5 -44t-120.5 -98v611l-246 -39v-1821zM371 229v424q49 63 103 101.5t120 38.5q84 0 137 -71t53 -214 q0 -164 -63.5 -243t-163.5 -79q-59 0 -100 10.5t-86 32.5z" />
<glyph unicode="&#xff;" horiz-adv-x="1015" d="M35 971l358 -975l-22 -66q-23 -53 -65 -78.5t-95 -25.5q-35 0 -62.5 4t-52.5 10l33 -202q16 -4 36.5 -7.5t53.5 -3.5q72 0 129.5 15.5t104.5 52.5t86 98.5t71 153.5l375 1042h-244l-221 -690l-229 705zM205 1126h235v236h-235v-236zM592 1126h235v236h-235v-236z" />
<glyph unicode="&#x152;" horiz-adv-x="1822" d="M98 705q0 -156 47.5 -286t141.5 -223.5t233 -144.5t324 -51h907v229h-571v389h460l-34 234h-426v332h551v229h-887q-180 0 -319.5 -51t-233.5 -145.5t-143.5 -224.5t-49.5 -287zM373 707q0 248 127 365.5t348 117.5h65v-967h-67q-106 0 -193.5 30t-150 90t-96 151.5 t-33.5 212.5z" />
<glyph unicode="&#x153;" horiz-adv-x="1722" d="M74 494q0 -121 34.5 -216.5t96 -162t144.5 -101t181 -34.5q127 0 212 49t141 135q55 -88 146 -136t226 -48q123 0 216.5 32.5t173.5 87.5l-29 193q-82 -57 -164 -90t-176 -33q-115 0 -185.5 65.5t-80.5 210.5h632q2 10 3.5 27t1.5 33q0 104 -26 196.5t-78 161t-132 107.5 t-188 39q-115 0 -199 -49.5t-137 -135.5q-53 88 -139 136.5t-213 48.5q-98 0 -183.5 -36t-147 -102.5t-96 -162t-34.5 -215.5zM313 494q0 139 56.5 226t167.5 87t170 -88t59 -225q0 -139 -57.5 -226.5t-171.5 -87.5q-109 0 -166.5 89t-57.5 225zM1014 600q14 123 68.5 181.5 t129.5 58.5q88 0 135.5 -61.5t59.5 -178.5h-393z" />
<glyph unicode="&#x178;" horiz-adv-x="1339" d="M33 1382l493 -843v-539h273v541l512 872h-291l-346 -625l-359 639zM360 1499h236v236h-236v-236zM748 1499h235v236h-235v-236z" />
<glyph unicode="&#x2c6;" d="M147 1120h156l162 133l168 -141l141 29l-192 274h-230z" />
<glyph unicode="&#x2dc;" d="M135 1145l133 -29q12 59 27.5 78.5t38.5 19.5t48.5 -10t84.5 -37q41 -20 72.5 -31.5t72.5 -11.5q74 0 120.5 60.5t62.5 197.5l-133 29q-12 -57 -28 -77.5t-38 -20.5q-23 0 -48.5 10t-84.5 39q-41 20 -73 31.5t-73 11.5q-74 0 -119.5 -60.5t-62.5 -199.5z" />
<glyph unicode="&#x2000;" horiz-adv-x="976" />
<glyph unicode="&#x2001;" horiz-adv-x="1952" />
<glyph unicode="&#x2002;" horiz-adv-x="976" />
<glyph unicode="&#x2003;" horiz-adv-x="1952" />
<glyph unicode="&#x2004;" horiz-adv-x="650" />
<glyph unicode="&#x2005;" horiz-adv-x="488" />
<glyph unicode="&#x2006;" horiz-adv-x="325" />
<glyph unicode="&#x2007;" horiz-adv-x="325" />
<glyph unicode="&#x2008;" horiz-adv-x="244" />
<glyph unicode="&#x2009;" horiz-adv-x="390" />
<glyph unicode="&#x200a;" horiz-adv-x="108" />
<glyph unicode="&#x2010;" horiz-adv-x="724" d="M96 471h533v236h-533v-236z" />
<glyph unicode="&#x2011;" horiz-adv-x="724" d="M96 471h533v236h-533v-236z" />
<glyph unicode="&#x2012;" horiz-adv-x="724" d="M96 471h533v236h-533v-236z" />
<glyph unicode="&#x2013;" d="M98 473h733v229h-733v-229z" />
<glyph unicode="&#x2014;" horiz-adv-x="1859" d="M98 475h1663v225h-1663v-225z" />
<glyph unicode="&#x2018;" horiz-adv-x="497" d="M68 868h280l51 529l-145 33z" />
<glyph unicode="&#x2019;" horiz-adv-x="497" d="M96 887l146 -35l188 561h-280z" />
<glyph unicode="&#x201a;" horiz-adv-x="497" d="M84 -229l145 -33l187 561h-281z" />
<glyph unicode="&#x201c;" horiz-adv-x="911" d="M68 868h278l51 529l-143 33zM485 868h277l53 529l-143 33z" />
<glyph unicode="&#x201d;" horiz-adv-x="911" d="M96 887l144 -35l186 561h-276zM514 887l143 -35l187 561h-279z" />
<glyph unicode="&#x201e;" horiz-adv-x="911" d="M84 -229l143 -33l187 561h-279zM502 -229l141 -33l188 561h-278z" />
<glyph unicode="&#x2022;" horiz-adv-x="923" d="M152 707l47 -287l264 -43l266 43l43 287l-43 286l-266 41l-264 -41z" />
<glyph unicode="&#x2026;" horiz-adv-x="1540" d="M127 0h266v297h-266v-297zM637 0h266v297h-266v-297zM1149 0h266v297h-266v-297z" />
<glyph unicode="&#x202f;" horiz-adv-x="390" />
<glyph unicode="&#x2039;" horiz-adv-x="671" d="M57 496l342 -510l176 39l-247 471l260 493h-197z" />
<glyph unicode="&#x203a;" horiz-adv-x="671" d="M82 0h199l333 494l-342 510l-178 -37l250 -473z" />
<glyph unicode="&#x205f;" horiz-adv-x="488" />
<glyph unicode="&#x2122;" horiz-adv-x="1648" d="M59 1282h215v-575h158v575h225l-20 131h-578v-131zM717 707h141l37 464l166 -466h135l166 466l35 -464h159l-55 706h-188l-172 -495l-174 495h-197z" />
<glyph unicode="&#x25fc;" horiz-adv-x="1003" d="M0 0v1004h1004v-1004h-1004z" />
<glyph unicode="&#xfb01;" horiz-adv-x="1185" d="M39 788h143v-788h244v788h219l-31 201h-188v146q0 66 33 95.5t96 29.5q31 0 57.5 -2.5t44.5 -6.5l-32 201q-18 4 -43 6t-58 2q-76 0 -139 -16.5t-108.5 -52t-70 -93t-24.5 -139.5v-170h-143v-201zM782 1296q0 -59 42 -98t102 -39q59 0 101 39t42 98q0 61 -42 101.5 t-101 40.5t-101.5 -40t-42.5 -102zM803 0h246v989h-246v-989z" />
<glyph unicode="&#xfb02;" horiz-adv-x="1185" d="M39 788h143v-788h244v788h219l-31 201h-188v146q0 66 33 95.5t96 29.5q31 0 57.5 -2.5t44.5 -6.5l-32 201q-18 4 -43 6t-58 2q-76 0 -139 -16.5t-108.5 -52t-70 -93t-24.5 -139.5v-170h-143v-201zM803 0h246v1479l-246 -39v-1440z" />
</font>
</defs>
</svg>
